FILE "True Pinball (E) (Track 01) [SLES-00052].bin" BINARY
  TRACK 01 MODE2/2352
    INDEX 01 00:00:00
FILE "True Pinball (E) (Track 02) [SLES-00052].bin" BINARY
  TRACK 02 AUDIO
    INDEX 00 00:00:00
    INDEX 01 00:02:00
FILE "True Pinball (E) (Track 03) [SLES-00052].bin" BINARY
  TRACK 03 AUDIO
    INDEX 00 00:00:00
    INDEX 01 00:02:00
FILE "True Pinball (E) (Track 04) [SLES-00052].bin" BINARY
  TRACK 04 AUDIO
    INDEX 00 00:00:00
    INDEX 01 00:02:00
FILE "True Pinball (E) (Track 05) [SLES-00052].bin" BINARY
  TRACK 05 AUDIO
    INDEX 00 00:00:00
    INDEX 01 00:02:00
FILE "True Pinball (E) (Track 06) [SLES-00052].bin" BINARY
  TRACK 06 AUDIO
    INDEX 00 00:00:00
    INDEX 01 00:02:00
FILE "True Pinball (E) (Track 07) [SLES-00052].bin" BINARY
  TRACK 07 AUDIO
    INDEX 00 00:00:00
    INDEX 01 00:02:00
FILE "True Pinball (E) (Track 08) [SLES-00052].bin" BINARY
  TRACK 08 AUDIO
    INDEX 00 00:00:00
    INDEX 01 00:02:00
FILE "True Pinball (E) (Track 09) [SLES-00052].bin" BINARY
  TRACK 09 AUDIO
    INDEX 00 00:00:00
    INDEX 01 00:02:00
FILE "True Pinball (E) (Track 10) [SLES-00052].bin" BINARY
  TRACK 10 AUDIO
    INDEX 00 00:00:00
    INDEX 01 00:02:00
FILE "True Pinball (E) (Track 11) [SLES-00052].bin" BINARY
  TRACK 11 AUDIO
    INDEX 00 00:00:00
    INDEX 01 00:02:00
FILE "True Pinball (E) (Track 12) [SLES-00052].bin" BINARY
  TRACK 12 AUDIO
    INDEX 00 00:00:00
    INDEX 01 00:02:00
FILE "True Pinball (E) (Track 13) [SLES-00052].bin" BINARY
  TRACK 13 AUDIO
    INDEX 00 00:00:00
    INDEX 01 00:02:00
FILE "True Pinball (E) (Track 14) [SLES-00052].bin" BINARY
  TRACK 14 AUDIO
    INDEX 00 00:00:00
    INDEX 01 00:02:00
FILE "True Pinball (E) (Track 15) [SLES-00052].bin" BINARY
  TRACK 15 AUDIO
    INDEX 00 00:00:00
    INDEX 01 00:02:00
FILE "True Pinball (E) (Track 16) [SLES-00052].bin" BINARY
  TRACK 16 AUDIO
    INDEX 00 00:00:00
    INDEX 01 00:02:00
FILE "True Pinball (E) (Track 17) [SLES-00052].bin" BINARY
  TRACK 17 AUDIO
    INDEX 00 00:00:00
    INDEX 01 00:02:00
FILE "True Pinball (E) (Track 18) [SLES-00052].bin" BINARY
  TRACK 18 AUDIO
    INDEX 00 00:00:00
    INDEX 01 00:02:00
FILE "True Pinball (E) (Track 19) [SLES-00052].bin" BINARY
  TRACK 19 AUDIO
    INDEX 00 00:00:00
    INDEX 01 00:02:00
FILE "True Pinball (E) (Track 20) [SLES-00052].bin" BINARY
  TRACK 20 AUDIO
    INDEX 00 00:00:00
    INDEX 01 00:02:00
FILE "True Pinball (E) (Track 21) [SLES-00052].bin" BINARY
  TRACK 21 AUDIO
    INDEX 00 00:00:00
    INDEX 01 00:02:00
FILE "True Pinball (E) (Track 22) [SLES-00052].bin" BINARY
  TRACK 22 AUDIO
    INDEX 00 00:00:00
    INDEX 01 00:02:00
FILE "True Pinball (E) (Track 23) [SLES-00052].bin" BINARY
  TRACK 23 AUDIO
    INDEX 00 00:00:00
    INDEX 01 00:02:00
FILE "True Pinball (E) (Track 24) [SLES-00052].bin" BINARY
  TRACK 24 AUDIO
    INDEX 00 00:00:00
    INDEX 01 00:02:00
FILE "True Pinball (E) (Track 25) [SLES-00052].bin" BINARY
  TRACK 25 AUDIO
    INDEX 00 00:00:00
    INDEX 01 00:02:00
FILE "True Pinball (E) (Track 26) [SLES-00052].bin" BINARY
  TRACK 26 AUDIO
    INDEX 00 00:00:00
    INDEX 01 00:02:00
FILE "True Pinball (E) (Track 27) [SLES-00052].bin" BINARY
  TRACK 27 AUDIO
    INDEX 00 00:00:00
    INDEX 01 00:02:00
FILE "True Pinball (E) (Track 28) [SLES-00052].bin" BINARY
  TRACK 28 AUDIO
    INDEX 00 00:00:00
    INDEX 01 00:02:00
FILE "True Pinball (E) (Track 29) [SLES-00052].bin" BINARY
  TRACK 29 AUDIO
    INDEX 00 00:00:00
    INDEX 01 00:02:00
FILE "True Pinball (E) (Track 30) [SLES-00052].bin" BINARY
  TRACK 30 AUDIO
    INDEX 00 00:00:00
    INDEX 01 00:02:00
FILE "True Pinball (E) (Track 31) [SLES-00052].bin" BINARY
  TRACK 31 AUDIO
    INDEX 00 00:00:00
    INDEX 01 00:02:00
FILE "True Pinball (E) (Track 32) [SLES-00052].bin" BINARY
  TRACK 32 AUDIO
    INDEX 00 00:00:00
    INDEX 01 00:02:00
FILE "True Pinball (E) (Track 33) [SLES-00052].bin" BINARY
  TRACK 33 AUDIO
    INDEX 00 00:00:00
    INDEX 01 00:02:00
FILE "True Pinball (E) (Track 34) [SLES-00052].bin" BINARY
  TRACK 34 AUDIO
    INDEX 00 00:00:00
    INDEX 01 00:02:00
FILE "True Pinball (E) (Track 35) [SLES-00052].bin" BINARY
  TRACK 35 AUDIO
    INDEX 00 00:00:00
    INDEX 01 00:02:00
FILE "True Pinball (E) (Track 36) [SLES-00052].bin" BINARY
  TRACK 36 AUDIO
    INDEX 00 00:00:00
    INDEX 01 00:02:00
FILE "True Pinball (E) (Track 37) [SLES-00052].bin" BINARY
  TRACK 37 AUDIO
    INDEX 00 00:00:00
    INDEX 01 00:02:00
FILE "True Pinball (E) (Track 38) [SLES-00052].bin" BINARY
  TRACK 38 AUDIO
    INDEX 00 00:00:00
    INDEX 01 00:02:00
FILE "True Pinball (E) (Track 39) [SLES-00052].bin" BINARY
  TRACK 39 AUDIO
    INDEX 00 00:00:00
    INDEX 01 00:02:00
FILE "True Pinball (E) (Track 40) [SLES-00052].bin" BINARY
  TRACK 40 AUDIO
    INDEX 00 00:00:00
    INDEX 01 00:02:00
FILE "True Pinball (E) (Track 41) [SLES-00052].bin" BINARY
  TRACK 41 AUDIO
    INDEX 00 00:00:00
    INDEX 01 00:02:00
FILE "True Pinball (E) (Track 42) [SLES-00052].bin" BINARY
  TRACK 42 AUDIO
    INDEX 00 00:00:00
    INDEX 01 00:02:00
FILE "True Pinball (E) (Track 43) [SLES-00052].bin" BINARY
  TRACK 43 AUDIO
    INDEX 00 00:00:00
    INDEX 01 00:02:00
FILE "True Pinball (E) (Track 44) [SLES-00052].bin" BINARY
  TRACK 44 AUDIO
    INDEX 00 00:00:00
    INDEX 01 00:02:00
FILE "True Pinball (E) (Track 45) [SLES-00052].bin" BINARY
  TRACK 45 AUDIO
    INDEX 00 00:00:00
    INDEX 01 00:02:00
FILE "True Pinball (E) (Track 46) [SLES-00052].bin" BINARY
  TRACK 46 AUDIO
    INDEX 00 00:00:00
    INDEX 01 00:02:00
FILE "True Pinball (E) (Track 47) [SLES-00052].bin" BINARY
  TRACK 47 AUDIO
    INDEX 00 00:00:00
    INDEX 01 00:02:00
FILE "True Pinball (E) (Track 48) [SLES-00052].bin" BINARY
  TRACK 48 AUDIO
    INDEX 00 00:00:00
    INDEX 01 00:02:00
FILE "True Pinball (E) (Track 49) [SLES-00052].bin" BINARY
  TRACK 49 AUDIO
    INDEX 00 00:00:00
    INDEX 01 00:02:00
FILE "True Pinball (E) (Track 50) [SLES-00052].bin" BINARY
  TRACK 50 AUDIO
    INDEX 00 00:00:00
    INDEX 01 00:02:00
